<?xml version="1.0" encoding="utf-8"?>
<!-- Generator: Adobe Illustrator 26.0.0, SVG Export Plug-In . SVG Version: 6.00 Build 0)  -->
<svg version="1.1" id="Capa_1" xmlns="http://www.w3.org/2000/svg" xmlns:xlink="http://www.w3.org/1999/xlink" x="0px" y="0px"
	 viewBox="0 0 127 128.7" style="enable-background:new 0 0 127 128.7;" xml:space="preserve">
<style type="text/css">
	.st0{fill:#FFFFFF;}
	.st1{fill:url(#SVGID_1_);}
	.st2{fill:url(#SVGID_00000151505129788736882620000003002474160980498068_);}
	.st3{fill:url(#SVGID_00000002372669347493458140000015678467202826052763_);}
	.st4{fill:url(#SVGID_00000121267643815136453110000003104163986841292196_);}
	.st5{fill:url(#SVGID_00000070821812747122631070000005401274552655122108_);}
	.st6{fill:url(#SVGID_00000088823008775764157170000005294462532378036393_);}
	.st7{fill:url(#SVGID_00000137837121330982408260000016064341129716806331_);}
</style>
<g>
	<g>
		<path d="M37.4,50c-3.2-3.2-3.2-8.4,0.1-11.6c3.2-3.2,8.5-3.2,11.8,0.1c3.1,3.1,3,8.5-0.1,11.6C45.9,53.3,40.7,53.3,37.4,50z"/>
		<g>
			<path class="st0" d="M71.9,33.4c2.8,1.1,5.6,3,7.6,6.2c0.4,0.7,0.8,1.3,1.1,2c0.6,1.1,1.1,2.1,1.6,3.1c-1.2-1.4-2.4-3-3.6-4.6
				c-1.1-1.4-2.2-2.8-3.5-4.1C74.1,35.1,73,34.2,71.9,33.4z"/>
			<path class="st0" d="M66.6,16.7c-3.4-1.5-6.8-2-10.2-2.4c-3.1-0.3-5.4-0.5-7.2-0.8c2.8-0.2,5.7-0.2,8.6,0.1
				C61.2,13.9,64.2,15,66.6,16.7z"/>
			<path class="st0" d="M73.1,43.6c0.6,1.4,1.6,2.6,2.4,4c0.6,1.1,0.9,2.2,0.8,2.9c-0.6-1.2-1.4-2.6-2.3-3.9
				C73.3,45.4,73.1,44.5,73.1,43.6z"/>
			<path class="st0" d="M80.8,31.6c-0.8-0.6-1.3-1.2-1.8-1.8c-0.4-0.5-0.7-0.9-1-1.4c-0.9-1.3-1.2-1.6-2.8-2.8
				C77.7,26.3,80.9,30,80.8,31.6z"/>
			<path class="st0" d="M39,12.5c-0.1,0-0.1,0.1-0.2,0.1c-0.1,0.1-0.3,0.1-0.4,0.2c2,0.3,5.7,0.1,7.5-0.4C45,11.7,41.8,11.6,39,12.5
				z"/>
			<path class="st0" d="M74.3,30c-1.4-0.4-3-1.3-4.3-2.4C71.1,27.5,73,28.5,74.3,30z"/>
			<path class="st0" d="M79.7,52.4c-0.7-1.1-1.2-2.7-1.1-3.7C79.5,49.7,80,51.3,79.7,52.4z"/>
			<path class="st0" d="M69.6,49.3c0.4,0.9,0.8,1.9,1.1,2.9c0,0-0.1,0-0.1,0C70.1,51.2,69.5,50.3,69.6,49.3z"/>
			<path class="st0" d="M76.1,32.7c1,0.6,1.8,1.3,2.2,2.2C77.3,34.2,76.7,33.5,76.1,32.7z"/>
		</g>
		<g>
			<path d="M107.8,21.3C84-3,44.2-2.8,20.6,20.4C-3.6,44-3.8,83.8,19.8,107.8c21.6,22,55.9,23.9,79.1,7.5c0.6-0.2,1.2-0.6,1.8-1.1
				c0.8-0.7,1.6-1.2,2.4-1.7c0.1-0.3,0.3-0.6,0.5-0.9c1.2-1.1,2.4-2.2,3.6-3.4C131.7,84.4,130.9,44.8,107.8,21.3z M99.4,108.8
				c0.1,0.2,0.2,0.3,0.3,0.5c-1.2,0.8-2.4,1.5-3.5,2.3c-0.5,0-0.6-0.3-0.4-0.9c0.3-0.1,0.5-0.2,0.8-0.4
				C97.5,109.8,98.4,109.3,99.4,108.8z M78.5,79c3.2-3.1,8.4-3.1,11.5,0c3.1,3.2,3.1,8.4-0.1,11.5c-3.2,3.2-8.3,3.2-11.5,0.1
				C75.1,87.4,75.2,82.3,78.5,79z M35.1,114.3c-14.7-8.8-24.8-21.7-27.9-39C4.3,59,7.4,43.5,17.4,29.9c5.1-6.8,11.6-12,20.3-13.9
				c18.8-4,36.5,12.4,34.1,31.5c-0.9,6.7-3.9,12.1-8.3,17c-4.4,5-7.6,10.6-8.2,17.4c0,0.5-0.1,1-0.1,1.5c-0.7-0.4-1.4-0.8-2-1.1
				c0.2,0.5,0.6,1.1,1.3,1.5c0.2,0.2,0.5,0.3,0.7,0.4c0,1.9,0.1,3.8,0.4,5.5c0,0,0,0,0,0c0,0.4,0.1,0.9,0.3,1.3
				c0.2,0.9,0.4,1.7,0.7,2.5c-0.8-0.5-1.6-1-2.4-1.5c-1-0.7-2-1.2-2.9-1.5c0.4,0.5,1,0.9,1.5,1.5c0.3,0.3,0.7,0.7,1,1
				c1,0.9,2.1,1.5,3.2,1.8c0.6,1.7,1.4,3.4,2.4,4.9c-0.4-0.1-0.9-0.1-1.2,0c0.6,0.6,1.3,1,1.9,1.1c0.3,0.5,0.7,0.9,1,1.4
				c-0.3-0.1-0.6-0.2-0.9-0.3c-1.3-0.3-2.1,0.2-1.7,1.4c0.6-0.1,1.2-0.2,1.9,0.2c0.9,0.4,1.4,1.1,1.5,1.8c0.2,0.7-0.2,1.1-0.9,1.4
				c-1.5,0.5-3.1,0-4.6-1.1c-0.5-0.4-0.9-0.8-1.3-1.2c0.6,2,2.7,3.7,5.3,4.1c1.3,0.2,2.6,0.1,3.9,0.1c1-0.1,2.1-0.2,3.1-0.3
				c0.8,0.6,1.7,1.2,2.6,1.8c0.2,0.1,0.3,0.2,0.5,0.3c-0.3,0.1-0.7,0.2-1.1,0.2c-0.4,0-0.8-0.1-1.2-0.2c0.9,0.9,2.1,1.4,3.6,1.4
				c0.5,0,1,0,1.4-0.1c3.7,1.7,7.4,2.4,11.1,2.1c0.3,0.4,0.9,0.6,1.6,0.6c0.6,0,1.1-0.1,1.7-0.2c0.7-0.1,1.4-0.4,2.1-0.5
				c0.9-0.2,1.3,0.4,0.7,1c-0.5,0.5-1.1,0.8-1.8,0.9c-0.5,0.1-0.9,0-1.4,0c0.2,0.2,0.5,0.4,0.9,0.5c-1.3,0.6-2.6,1.2-3.9,1.8
				c-0.7,0.1-1.4,0.3-2.1,0.4c0.3,0,0.5,0.1,0.8,0.1C66.9,124.6,50.8,123.8,35.1,114.3z"/>
			
				<radialGradient id="SVGID_1_" cx="177.256" cy="-34.5974" r="4.6917" gradientTransform="matrix(0.8824 0 0 -0.8824 -86.8077 82.8742)" gradientUnits="userSpaceOnUse">
				<stop  offset="0" style="stop-color:#797979"/>
				<stop  offset="0.9768" style="stop-color:#000000"/>
			</radialGradient>
			<path class="st1" d="M63.9,112.2c1.6,1.4,3.5,2.2,5.8,2.3c1.9,0.1,3.8-0.1,5.7-0.3c-1.2-0.4-2.7-0.6-4.8-0.8
				C68.4,113.3,66.1,113.2,63.9,112.2z"/>
			
				<radialGradient id="SVGID_00000060720953689199939760000012432146784269425321_" cx="161.7471" cy="-22.962" r="2.1648" gradientTransform="matrix(0.8824 0 0 -0.8824 -86.8077 82.8742)" gradientUnits="userSpaceOnUse">
				<stop  offset="0" style="stop-color:#797979"/>
				<stop  offset="0.9768" style="stop-color:#000000"/>
			</radialGradient>
			<path style="fill:url(#SVGID_00000060720953689199939760000012432146784269425321_);" d="M57.9,104.9c-1.1-0.7-1.3-0.9-2-1.8
				c-0.2-0.3-0.5-0.6-0.8-0.9c-0.4-0.4-0.8-0.7-1.3-0.9C54,103,56.3,105.1,57.9,104.9z"/>
			
				<radialGradient id="SVGID_00000132078325662501305890000009199713330527801767_" cx="188.9627" cy="-37.6889" r="2.0571" gradientTransform="matrix(0.8824 0 0 -0.8824 -86.8077 82.8742)" gradientUnits="userSpaceOnUse">
				<stop  offset="0" style="stop-color:#797979"/>
				<stop  offset="0.9768" style="stop-color:#000000"/>
			</radialGradient>
			<path style="fill:url(#SVGID_00000132078325662501305890000009199713330527801767_);" d="M77.4,115.8c0.7,0.9,3.1,1.2,5,0.4
				C81.2,115.5,78.7,115.3,77.4,115.8z"/>
			
				<radialGradient id="SVGID_00000059272468248920994440000005944452570040905631_" cx="156.9386" cy="-1.8002" r="0.926" gradientTransform="matrix(0.8824 0 0 -0.8824 -86.8077 82.8742)" gradientUnits="userSpaceOnUse">
				<stop  offset="0" style="stop-color:#797979"/>
				<stop  offset="0.9768" style="stop-color:#000000"/>
			</radialGradient>
			<path style="fill:url(#SVGID_00000059272468248920994440000005944452570040905631_);" d="M52.4,85.3c-0.2-0.8-0.9-1.5-1.6-1.7
				C51,84.4,51.7,85.2,52.4,85.3z"/>
			
				<radialGradient id="SVGID_00000160168061423313101750000001683958812820926344_" cx="161.746" cy="-16.4446" r="0.7785" gradientTransform="matrix(0.8824 0 0 -0.8824 -86.8077 82.8742)" gradientUnits="userSpaceOnUse">
				<stop  offset="0" style="stop-color:#797979"/>
				<stop  offset="0.9768" style="stop-color:#000000"/>
			</radialGradient>
			<path style="fill:url(#SVGID_00000160168061423313101750000001683958812820926344_);" d="M56.7,97.9c-0.5-0.6-0.9-0.9-1.6-1.1
				C55.5,97.5,56,97.8,56.7,97.9z"/>
		</g>
		<path class="st0" d="M36.5,40.4c-1,3.1-1,5.9,0.9,8.7C34.7,47.1,34.7,42.8,36.5,40.4z"/>
		<path class="st0" d="M46.2,36.6c1.1,0,2.4,0.8,2.7,1.8C48,37.8,47.1,37.2,46.2,36.6z"/>
		<path class="st0" d="M42.6,36.4c-0.4,0-0.7,0.1-1.1,0.1c0-0.4,0.3-0.5,0.7-0.5c0.2,0,0.3,0.2,0.5,0.3
			C42.6,36.4,42.6,36.4,42.6,36.4z"/>
		<path class="st0" d="M41.1,38.8c-0.4,0.3-0.6,0.4-1,0.7c0.1-0.3,0.2-0.5,0.3-0.6C40.6,38.8,40.9,38.8,41.1,38.8z"/>
		<path class="st0" d="M37.8,41.9c-0.1-0.7,0-0.8,0.6-0.9C38.2,41.3,38,41.6,37.8,41.9z"/>
		<path class="st0" d="M43.7,36.4c0.5-0.3,0.7-0.3,1,0.2c-0.2,0-0.4-0.1-0.5-0.1C44.1,36.5,43.9,36.4,43.7,36.4z"/>
		<path d="M48.6,43.7c-0.2-0.3-0.2-0.6,0.1-0.9c0.4-0.3,0.8-0.3,1,0s0.3,0.8,0,1C49.4,44.1,48.9,44,48.6,43.7z"/>
		<path d="M39.3,44.2c0.2,0.3,0.2,0.6,0,0.9c-0.3,0.3-0.7,0.2-1-0.1c-0.3-0.3-0.2-0.6,0-0.8C38.6,43.9,39,43.9,39.3,44.2z"/>
		<path d="M47.5,39.8c-0.2,0-0.5,0-0.7-0.2c-0.2-0.2-0.3-0.6,0-0.8c0.3-0.2,0.6-0.2,0.8,0.1C47.9,39.1,47.9,39.4,47.5,39.8z"/>
		<path class="st0" d="M47,49.2c0.2,0.1,0.5,0.1,0.7,0.2c0.3,0.2,0.2,0.6-0.1,0.7c-0.2,0.1-0.6,0.1-0.7-0.1
			c-0.1-0.1-0.1-0.5-0.1-0.7C46.9,49.3,46.9,49.3,47,49.2z"/>
		<path class="st0" d="M50.3,46.7c-0.3-0.1-0.6-0.1-0.6-0.2c-0.1-0.2,0-0.4,0-0.6c0.2,0,0.5,0,0.6,0.1
			C50.4,46.1,50.3,46.4,50.3,46.7z"/>
		<path d="M42.6,51.7c-0.2-0.3-0.4-0.6-0.6-0.9c0,0,0-0.1,0.1-0.3c0.2,0.2,0.5,0.3,0.6,0.5c0.1,0.1,0,0.4,0,0.6
			C42.8,51.7,42.7,51.7,42.6,51.7z"/>
		<path class="st0" d="M50.2,42.7c-0.5-0.7-1.1-0.4-1.7-0.2c0.2-0.4,0.6-0.5,0.9-0.5C49.8,42,50,42.2,50.2,42.7z"/>
		<path d="M40,48.7c0.6,0.3,0.7,0.7,0.2,1.1C40.1,49.5,40,49.2,40,48.7z"/>
		<path class="st0" d="M41.8,45.9c-0.1,0.2-0.1,0.4-0.1,0.5c-0.1,0.1-0.3,0.1-0.4,0.1c0-0.2,0-0.4,0.1-0.5
			C41.3,45.9,41.5,45.9,41.8,45.9z"/>
		<path d="M42.4,42c-0.2-0.1-0.4-0.1-0.5-0.2c-0.1-0.1,0-0.2,0-0.4c0.1,0,0.3,0,0.4,0.1C42.4,41.6,42.3,41.7,42.4,42z"/>
		<path d="M87.5,92.8c-2.7,1.4-5.4,1.3-8.1-0.2c-4-2.3-6.1-8.1-2.7-12.6c2.9-3.9,8.4-5.1,12.7-1.4c2.7,2.4,4.7,7.4,1.1,11.9
			C89.7,91.5,88.7,92.3,87.5,92.8c0.1-0.1,0.1-0.2,0.2-0.2c0.9-0.5,1.8-1.1,2.5-2c1.8-2.3,2.5-4.8,1.7-7.6c-0.4-1.2-1.2-2.1-2.4-2.6
			c-0.6-0.2-1.2-0.5-1.8-0.8c-0.3-0.2-0.6-0.1-0.7,0.2c-0.1,0.2-0.1,0.3-0.1,0.5c-0.2,0.6-0.6,0.8-1.1,0.4c-0.3-0.3-0.5-0.1-0.6,0.1
			c-0.1,0.1-0.1,0.3-0.2,0.5c-0.1,0.1-0.3,0.3-0.4,0.3c-0.1,0-0.2-0.2-0.3-0.4c-0.1-0.1-0.1-0.2-0.1-0.3c-0.1-0.2-0.2-0.3-0.3-0.5
			c-0.1,0.1-0.3,0.3-0.3,0.5c-0.2,0.7-0.5,1.1-1.3,1.2c-0.4,0-0.8,0.3-0.9,0.7c-0.3,0.6-0.6,1-1.3,1.1c-0.1,0-0.2,0.1-0.3,0.1
			c-0.4,0.4-0.7,0.9-1.1,1.3c-0.3,0.4-0.2,0.6,0.1,0.9c0.2,0.1,0.4,0.4,0.4,0.6c0,0.4,0.2,0.6,0.5,0.7c0.5,0.2,0.6,0.5,0.3,0.9
			c-0.3,0.3-0.4,0.6-0.3,1c0,0.1-0.1,0.3-0.1,0.4c-0.2,0.4-0.1,0.6,0.2,0.9c0.3,0.3,0.6,0.6,0.9,1c0,0,0.1,0,0.3,0.1
			c-0.2,0.6,0,0.7,0.6,0.7c0.2,0,0.4,0.1,0.6,0.2c0.5,0.2,1,0.6,1.5,0.8c1.2,0.3,2.3,0,3.5-0.5C87.2,92.9,87.4,92.9,87.5,92.8z
			 M77,81.4c-1.8,2.4-1.8,6.7,0.9,8.7C76,87.4,75.9,84.5,77,81.4z M86.6,77.6c0.9,0.6,1.8,1.2,2.7,1.8
			C88.9,78.4,87.7,77.6,86.6,77.6z M83,77.5c0,0,0.1-0.1,0.1-0.1c-0.2-0.1-0.3-0.3-0.5-0.3c-0.3,0-0.6,0.1-0.7,0.5
			C82.3,77.5,82.6,77.5,83,77.5z M81.5,79.9c-0.3,0-0.5,0-0.6,0.1c-0.1,0.1-0.2,0.4-0.3,0.6C80.9,80.3,81.2,80.1,81.5,79.9z
			 M78.2,83c0.2-0.3,0.4-0.6,0.6-0.9C78.2,82.1,78.1,82.2,78.2,83z M84.1,77.4c0.2,0,0.4,0.1,0.5,0.1c0.1,0,0.3,0.1,0.5,0.1
			C84.8,77.1,84.6,77.1,84.1,77.4z"/>
		<path class="st0" d="M87.5,92.8c-0.2,0-0.4,0.1-0.5,0.1c-1.1,0.4-2.3,0.8-3.5,0.5c-0.5-0.1-1-0.5-1.5-0.8
			c-0.2-0.1-0.4-0.2-0.6-0.2c-0.5,0-0.7-0.1-0.6-0.7c-0.2,0-0.3-0.1-0.3-0.1c-0.4-0.4-0.6-0.8-0.9-1c-0.3-0.3-0.4-0.5-0.2-0.9
			c0.1-0.1,0.1-0.3,0.1-0.4c-0.1-0.4,0-0.7,0.3-1c0.3-0.4,0.2-0.7-0.3-0.9c-0.3-0.1-0.5-0.3-0.5-0.7c0-0.2-0.2-0.5-0.4-0.6
			c-0.4-0.3-0.4-0.5-0.1-0.9c0.4-0.4,0.7-0.9,1.1-1.3c0.1-0.1,0.2-0.1,0.3-0.1c0.7,0,1.1-0.5,1.3-1.1c0.2-0.4,0.5-0.7,0.9-0.7
			c0.8-0.1,1.1-0.5,1.3-1.2c0.1-0.2,0.2-0.3,0.3-0.5c0.1,0.2,0.2,0.3,0.3,0.5c0.1,0.1,0,0.2,0.1,0.3c0.1,0.1,0.2,0.4,0.3,0.4
			c0.2,0,0.3-0.2,0.4-0.3c0.1-0.1,0.1-0.3,0.2-0.5c0.2-0.3,0.3-0.4,0.6-0.1c0.5,0.4,0.9,0.2,1.1-0.4c0-0.2,0.1-0.3,0.1-0.5
			c0.1-0.3,0.4-0.4,0.7-0.2c0.6,0.3,1.2,0.6,1.8,0.8c1.2,0.5,2,1.4,2.4,2.6c0.8,2.8,0.1,5.3-1.7,7.6c-0.7,0.9-1.5,1.5-2.5,2
			C87.6,92.6,87.6,92.7,87.5,92.8C87.5,92.8,87.5,92.8,87.5,92.8z M89,84.7c0.3,0.3,0.8,0.4,1.1,0.1c0.3-0.2,0.3-0.7,0-1
			c-0.3-0.3-0.7-0.3-1,0C88.8,84.1,88.8,84.5,89,84.7z M79.7,85.2c-0.3-0.3-0.7-0.3-1,0c-0.3,0.2-0.3,0.5,0,0.8
			c0.3,0.3,0.7,0.3,1,0.1C79.9,85.8,79.9,85.5,79.7,85.2z M87.9,80.9c0.4-0.4,0.4-0.7,0.2-0.9s-0.5-0.3-0.8-0.1
			c-0.3,0.2-0.3,0.6,0,0.8C87.4,80.8,87.7,80.8,87.9,80.9z M87.4,90.3c-0.1,0.1-0.1,0.1-0.2,0.2c0,0.2,0,0.6,0.1,0.7
			c0.1,0.1,0.5,0.2,0.7,0.1c0.3-0.1,0.3-0.5,0.1-0.7C87.9,90.4,87.6,90.3,87.4,90.3z M90.7,87.8c0-0.4,0.1-0.6,0-0.7
			c-0.1-0.1-0.4-0.1-0.6-0.1c0,0.2-0.1,0.4,0,0.6C90.1,87.6,90.4,87.7,90.7,87.8z M83,92.7c0.1,0,0.1,0,0.2,0c0-0.2,0.1-0.5,0-0.6
			c-0.1-0.2-0.4-0.4-0.6-0.5c-0.1,0.2-0.1,0.2-0.1,0.3C82.7,92.1,82.9,92.4,83,92.7z M90.6,83.7c-0.2-0.5-0.4-0.7-0.8-0.7
			c-0.4,0-0.8,0.1-0.9,0.5C89.5,83.3,90.1,83,90.6,83.7z M80.4,89.8c0.1,0.4,0.1,0.8,0.2,1.1C81,90.5,81,90,80.4,89.8z M82.2,86.9
			c-0.2,0-0.5,0-0.5,0.1c-0.1,0.1,0,0.3-0.1,0.5c0.1,0,0.3,0,0.4-0.1C82.1,87.3,82.1,87.1,82.2,86.9z M82.8,83c0-0.2,0-0.4-0.1-0.5
			c-0.1-0.1-0.3-0.1-0.4-0.1c0,0.1-0.1,0.3,0,0.4C82.4,82.9,82.5,82.9,82.8,83z"/>
		<path class="st0" d="M77,81.4c-1,3.1-1,5.9,0.9,8.7C75.1,88.1,75.1,83.8,77,81.4z"/>
		<path class="st0" d="M86.6,77.6c1.1,0,2.4,0.8,2.7,1.8C88.4,78.8,87.5,78.2,86.6,77.6z"/>
		<path class="st0" d="M83,77.5c-0.4,0-0.7,0.1-1.1,0.1c0-0.4,0.3-0.5,0.7-0.5c0.2,0,0.3,0.2,0.5,0.3C83,77.4,83,77.4,83,77.5z"/>
		<path class="st0" d="M81.5,79.9c-0.4,0.3-0.6,0.4-1,0.7c0.1-0.3,0.2-0.5,0.3-0.6C81,79.8,81.3,79.9,81.5,79.9z"/>
		<path class="st0" d="M78.2,83c-0.1-0.7,0-0.8,0.6-0.9C78.6,82.4,78.4,82.6,78.2,83z"/>
		<path class="st0" d="M84.1,77.4c0.5-0.3,0.7-0.3,1,0.2c-0.2,0-0.4-0.1-0.5-0.1C84.5,77.5,84.3,77.5,84.1,77.4z"/>
		<path d="M89,84.7c-0.2-0.3-0.2-0.6,0.1-0.9c0.4-0.3,0.8-0.3,1,0s0.3,0.8,0,1C89.8,85.1,89.3,85.1,89,84.7z"/>
		<path d="M79.7,85.2c0.2,0.3,0.2,0.6,0,0.9c-0.3,0.3-0.7,0.2-1-0.1c-0.3-0.3-0.2-0.6,0-0.8C79,84.9,79.4,84.9,79.7,85.2z"/>
		<path d="M87.9,80.9c-0.2,0-0.5,0-0.7-0.2c-0.2-0.2-0.3-0.6,0-0.8c0.3-0.2,0.6-0.2,0.8,0.1C88.3,80.2,88.3,80.5,87.9,80.9z"/>
		<path d="M87.4,90.3c0.2,0.1,0.5,0.1,0.7,0.2c0.3,0.2,0.2,0.6-0.1,0.7c-0.2,0.1-0.6,0.1-0.7-0.1c-0.1-0.1-0.1-0.5-0.1-0.7
			C87.3,90.4,87.3,90.3,87.4,90.3z"/>
		<path d="M90.7,87.8c-0.3-0.1-0.6-0.1-0.6-0.2c-0.1-0.2,0-0.4,0-0.6c0.2,0,0.5,0,0.6,0.1C90.8,87.2,90.7,87.4,90.7,87.8z"/>
		<path d="M83,92.7c-0.2-0.3-0.4-0.6-0.6-0.9c0,0,0-0.1,0.1-0.3c0.2,0.2,0.5,0.3,0.6,0.5c0.1,0.1,0,0.4,0,0.6
			C83.2,92.7,83.1,92.7,83,92.7z"/>
		<path d="M90.6,83.7c-0.5-0.7-1.1-0.4-1.7-0.2c0.2-0.4,0.6-0.5,0.9-0.5C90.2,83.1,90.4,83.3,90.6,83.7z"/>
		<path d="M80.4,89.8c0.6,0.3,0.7,0.7,0.2,1.1C80.5,90.5,80.4,90.2,80.4,89.8z"/>
		<path d="M82.2,86.9c-0.1,0.2-0.1,0.4-0.1,0.5c-0.1,0.1-0.3,0.1-0.4,0.1c0-0.2,0-0.4,0.1-0.5C81.7,86.9,81.9,86.9,82.2,86.9z"/>
		<path d="M82.8,83c-0.2-0.1-0.4-0.1-0.5-0.2c-0.1-0.1,0-0.2,0-0.4c0.1,0,0.3,0,0.4,0.1C82.8,82.6,82.7,82.8,82.8,83z"/>
		<g>
			
				<radialGradient id="SVGID_00000081609164785694057040000007230161125271800994_" cx="209.0733" cy="-30.9975" r="1.9549" gradientTransform="matrix(0.8824 0 0 -0.8824 -86.8077 82.8742)" gradientUnits="userSpaceOnUse">
				<stop  offset="0" style="stop-color:#FFFFFF"/>
				<stop  offset="0.9768" style="stop-color:#E6E9ED"/>
			</radialGradient>
			<path style="fill:url(#SVGID_00000081609164785694057040000007230161125271800994_);" d="M99.4,108.8c-0.9,0.5-1.9,1-2.8,1.5
				c-0.3,0.1-0.5,0.3-0.8,0.4c-0.2,0.6-0.1,0.9,0.4,0.9c1.2-0.8,2.4-1.5,3.5-2.3C99.6,109.1,99.5,109,99.4,108.8z"/>
			
				<radialGradient id="SVGID_00000026876492375811895000000006087487623841490822_" cx="153.2449" cy="16.2584" r="54.8271" gradientTransform="matrix(0.8824 0 0 -0.8824 -86.8077 82.8742)" gradientUnits="userSpaceOnUse">
				<stop  offset="0" style="stop-color:#FFFFFF"/>
				<stop  offset="0.9768" style="stop-color:#E6E9ED"/>
			</radialGradient>
			<path style="fill:url(#SVGID_00000026876492375811895000000006087487623841490822_);" d="M89.7,113.7c-0.7,0.1-1.4,0.3-2.1,0.5
				c-0.6,0.1-1.1,0.2-1.7,0.2c-0.8,0.1-1.4-0.1-1.6-0.6c-3.7,0.2-7.4-0.5-11.1-2.1c-0.5,0-0.9,0.1-1.4,0.1c-1.4,0-2.7-0.5-3.6-1.4
				c0.4,0.1,0.8,0.1,1.2,0.2c0.4,0,0.8-0.1,1.1-0.2c-0.2-0.1-0.3-0.2-0.5-0.3c-0.9-0.6-1.8-1.2-2.6-1.8c-1,0.1-2.1,0.2-3.1,0.3
				c-1.3,0.1-2.6,0.1-3.9-0.1c-2.6-0.4-4.7-2.2-5.3-4.1c0.4,0.4,0.8,0.8,1.3,1.2c1.5,1.1,3.1,1.6,4.6,1.1c0.7-0.2,1-0.7,0.9-1.4
				c-0.2-0.7-0.7-1.3-1.5-1.8c-0.7-0.4-1.3-0.3-1.9-0.2c-0.3-1.1,0.4-1.7,1.7-1.4c0.3,0.1,0.6,0.2,0.9,0.3c-0.4-0.4-0.7-0.9-1-1.4
				c-0.6-0.1-1.4-0.4-1.9-1.1c0.4-0.1,0.8-0.1,1.2,0c-1-1.6-1.8-3.2-2.4-4.9c-1.1-0.3-2.2-0.8-3.2-1.8c-0.4-0.3-0.7-0.7-1-1
				c-0.5-0.5-1.1-1-1.5-1.5c0.9,0.2,1.9,0.8,2.9,1.5c0.8,0.5,1.6,1,2.4,1.5c-0.3-0.8-0.5-1.7-0.7-2.5c-0.2-0.4-0.3-0.8-0.3-1.3
				c0,0,0,0,0,0c-0.3-1.8-0.4-3.6-0.4-5.5c-0.2-0.1-0.5-0.3-0.7-0.4c-0.6-0.4-1.1-1.1-1.3-1.5c0.6,0.4,1.3,0.7,2,1.1
				c0-0.5,0-1,0.1-1.5c0.6-6.8,3.8-12.4,8.2-17.4c3.9-4.4,6.7-9.2,7.9-14.9c0.2,0,0.4-0.2,0.6-0.5c-0.1-0.2-0.3-0.3-0.4-0.5
				c0.1-0.4,0.1-0.8,0.2-1.2c0.1-0.8,0.2-1.6,0.2-2.4c0.1,0,0.2,0,0.3,0.1c-0.1-0.2-0.2-0.4-0.3-0.6c0-0.8,0-1.5,0-2.3
				c0.2-0.1,0.5,0,0.9,0.1c0.2,0.1,0.4,0.1,0.5,0.2c0.5,0.1,0.8,0,0.7-0.5c0-0.3-0.1-0.7-0.2-1.1c-0.2-0.6-0.5-1.1-0.7-1.7
				c-0.3-0.8,0.1-1.1,0.9-0.7c0.6,0.3,1,0.7,1.4,1.3c0.2,0.3,0.4,0.6,0.6,0.9c0.3-1.2-0.4-3.1-2.2-4.8c-1-0.9-2.1-1.8-3.3-2.6
				c-0.4-0.3-0.7-0.6-0.9-0.8c-0.1-0.2-0.2-0.4-0.3-0.6c0-0.1,0-0.1,0-0.2c0-0.4,0.6-0.6,1.5-0.2c0.9,0.4,1.8,0.9,2.7,1.4
				c0.1-0.6-0.5-1.4-1.7-2.2c-0.5-0.4-1.1-0.7-1.6-1c-1.1-0.7-1.4-1.3-0.7-1.5c0.2-0.1,0.5-0.1,0.8-0.1c-0.6-0.4-1.2-0.8-1.7-1.2
				c-0.8-0.6-1.2-1.2-0.9-1.5c0.3-0.2,1.3-0.1,2.4,0.4c0.5,0.2,1,0.6,1.6,0.8c1.9,1,3.1,0.9,2.6-0.3c-0.9-0.2-1.8-0.5-2.7-1.1
				c-1.2-0.8-1.9-1.5-2.1-2.2c-0.2-0.6,0.3-0.9,1.4-0.8c2.3,0.3,4.7,1.5,6.8,3.4c0.7,0.6,1.2,1.2,1.8,1.9c-0.7-2.3-3.7-5.2-7.7-6.7
				c-2-0.7-3.9-1.2-5.9-1.5c-1.9-0.3-3.7-0.5-5.6-0.6c-1.1-0.1-2.1-0.3-3.1-0.6c-1.1-0.4-1.7-0.8-1.5-1.2c0.2-0.4,1.3-0.6,2.6-0.4
				c0.6,0.1,1.2,0.2,1.8,0.3c-1.3-0.9-3.2-1.5-5.4-1.6c-2.2-0.1-4.3,0.1-6.4,0.3c-2.2-0.4-4.5-0.5-6.8-0.3c0,0,0,0,0,0
				c0.5-0.3,1.2-0.5,1.9-0.7c0,0-0.1,0-0.2-0.1c-1-0.2-2.2,0-3.3,0.3c-1.9,0.4-3.3,0.6-4.1,0.1c-0.4-0.3-1.3-0.3-2.6,0
				c-0.5,0.1-1,0.3-1.6,0.5c-0.5,0.2-1,0.4-1.4,0.7c-1,0.5-4.3,2.1-4.8,2.9c-0.1,0.2-0.3,0.4-0.4,0.7c1.2-0.7,2.4-1.2,3.7-1.6
				c-2.9,1.5-4.4,3.5-3.5,3.9c-2.8,2.2-5.3,4.9-7.6,7.9C7.4,43.5,4.3,59,7.2,75.4c3.1,17.2,13.2,30.2,27.9,39
				c15.7,9.4,31.7,10.2,47.6,4.1c-0.3,0-0.5-0.1-0.8-0.1c0.8-0.1,1.5-0.4,2.1-0.4c1.3-0.5,2.6-1.1,3.9-1.8c-0.3-0.1-0.6-0.3-0.9-0.5
				c0.5,0,0.9,0,1.4,0c0.7-0.1,1.4-0.4,1.8-0.9C90.9,114.1,90.6,113.6,89.7,113.7z M37.4,50c-3.2-3.2-3.2-8.4,0.1-11.6
				c3.2-3.2,8.5-3.2,11.8,0.1c3.1,3.1,3,8.5-0.1,11.6C45.9,53.3,40.7,53.3,37.4,50z M52.4,85.3c-0.8-0.1-1.4-0.9-1.6-1.7
				C51.6,83.8,52.3,84.5,52.4,85.3z M56.7,97.9c-0.7-0.1-1.2-0.4-1.6-1.1C55.8,97,56.2,97.3,56.7,97.9z M55.2,102.2
				c0.3,0.3,0.5,0.6,0.8,0.9c0.7,0.9,0.9,1.1,2,1.8c-1.7,0.2-4-1.9-4.1-3.6C54.4,101.5,54.8,101.8,55.2,102.2z M69.7,114.5
				c-2.3-0.1-4.2-0.9-5.8-2.3c2.2,1,4.5,1.1,6.7,1.2c2.1,0.1,3.5,0.3,4.8,0.8C73.5,114.4,71.6,114.6,69.7,114.5z M77.4,115.8
				c1.2-0.5,3.8-0.3,5,0.4C80.5,117,78.1,116.8,77.4,115.8z"/>
		</g>
	</g>
</g>
</svg>
